# xmcd
#
# Track frame offsets: 
#        150
#        15380
#        27580
#        38713
#        56580
#        67538
#        78359
#        89229
#        105391
#        117322
#        124969
#        134239
#
# Disc length: 1938 seconds
#
# Revision: 1
# Processed by: cddbd v1.5.1PL2 Copyright (c) Steve Scherf et al.
# Submitted via: ExactAudioCopy v0.95b4
#
DISCID=a007900c
DTITLE=Various Artist - Jeg synger også med 1, CD 2
DYEAR=2003
DGENRE=Kids
TTITLE0=Lille Peter Edderkop
TTITLE1=Tingelingelater
TTITLE2=Tag den ring
TTITLE3=Så går vi rundt om en enebærbusk
TTITLE4=Bonden gik i skoven
TTITLE5=Åh, Susanne
TTITLE6=Der bor en bager
TTITLE7=Ti små negerbørn
TTITLE8=Tre små kinesere
TTITLE9=Tommelfingre
TTITLE10=Hvad si'r du til sådan en kasse
TTITLE11=Mester Jacob
EXTD=
EXTT0=
EXTT1=
EXTT2=
EXTT3=
EXTT4=
EXTT5=
EXTT6=
EXTT7=
EXTT8=
EXTT9=
EXTT10=
EXTT11=
PLAYORDER=
